<mxfile host="app.diagrams.net" modified="2023-09-17T20:13:49.471Z" agent="Mozilla/5.0 (Windows NT 10.0; Win64; x64) AppleWebKit/537.36 (KHTML, like Gecko) Chrome/117.0.0.0 Safari/537.36 Edg/117.0.2045.31" etag="zquy38bgYKO5Z8xUjNAG" version="21.7.5" type="device">
  <diagram name="Page-1" id="b5NVP_9jVtskwhASZ5UH">
    <mxGraphModel dx="2365" dy="768" grid="1" gridSize="10" guides="1" tooltips="1" connect="1" arrows="1" fold="1" page="1" pageScale="1" pageWidth="850" pageHeight="1100" math="0" shadow="0">
      <root>
        <mxCell id="0" />
        <mxCell id="1" parent="0" />
        <mxCell id="9emtBQFoJuCTRoUykFiL-3" style="edgeStyle=orthogonalEdgeStyle;rounded=0;orthogonalLoop=1;jettySize=auto;html=1;" parent="1" source="cFowtM8nGDFWOl0pQlT--1" target="9emtBQFoJuCTRoUykFiL-2" edge="1">
          <mxGeometry relative="1" as="geometry" />
        </mxCell>
        <mxCell id="cFowtM8nGDFWOl0pQlT--1" value="1. Welcome" style="rounded=0;whiteSpace=wrap;html=1;fillColor=#76608a;strokeColor=#432D57;fontColor=#ffffff;" parent="1" vertex="1">
          <mxGeometry x="-40" y="20" width="75" height="40" as="geometry" />
        </mxCell>
        <mxCell id="9emtBQFoJuCTRoUykFiL-29" style="edgeStyle=orthogonalEdgeStyle;rounded=0;orthogonalLoop=1;jettySize=auto;html=1;" parent="1" source="9emtBQFoJuCTRoUykFiL-1" target="9emtBQFoJuCTRoUykFiL-28" edge="1">
          <mxGeometry relative="1" as="geometry" />
        </mxCell>
        <mxCell id="9emtBQFoJuCTRoUykFiL-1" value="6. Suggest&lt;br&gt;Restaurant" style="rounded=0;whiteSpace=wrap;html=1;fillColor=#76608a;fontColor=#ffffff;strokeColor=#432D57;" parent="1" vertex="1">
          <mxGeometry x="140" y="920" width="120" height="60" as="geometry" />
        </mxCell>
        <mxCell id="9emtBQFoJuCTRoUykFiL-7" style="edgeStyle=orthogonalEdgeStyle;rounded=0;orthogonalLoop=1;jettySize=auto;html=1;entryX=0.5;entryY=0;entryDx=0;entryDy=0;" parent="1" source="9emtBQFoJuCTRoUykFiL-2" target="9emtBQFoJuCTRoUykFiL-4" edge="1">
          <mxGeometry relative="1" as="geometry" />
        </mxCell>
        <mxCell id="9emtBQFoJuCTRoUykFiL-2" value="Express preferences" style="ellipse;whiteSpace=wrap;html=1;fillColor=#6d8764;fontColor=#ffffff;strokeColor=#3A5431;" parent="1" vertex="1">
          <mxGeometry x="-62.5" y="80" width="120" height="50" as="geometry" />
        </mxCell>
        <mxCell id="9emtBQFoJuCTRoUykFiL-8" value="no" style="edgeStyle=orthogonalEdgeStyle;rounded=0;orthogonalLoop=1;jettySize=auto;html=1;entryX=0;entryY=0.5;entryDx=0;entryDy=0;" parent="1" source="9emtBQFoJuCTRoUykFiL-4" target="9emtBQFoJuCTRoUykFiL-9" edge="1">
          <mxGeometry relative="1" as="geometry">
            <mxPoint x="290" y="290" as="targetPoint" />
            <Array as="points">
              <mxPoint x="270" y="210" />
              <mxPoint x="270" y="210" />
            </Array>
          </mxGeometry>
        </mxCell>
        <mxCell id="9emtBQFoJuCTRoUykFiL-10" value="yes" style="edgeStyle=orthogonalEdgeStyle;rounded=0;orthogonalLoop=1;jettySize=auto;html=1;entryX=0.5;entryY=0;entryDx=0;entryDy=0;exitX=0.5;exitY=1;exitDx=0;exitDy=0;" parent="1" source="9emtBQFoJuCTRoUykFiL-4" target="SgVEHP1aC8Nxf148HGIK-3" edge="1">
          <mxGeometry x="0.2121" relative="1" as="geometry">
            <mxPoint x="-53.5" y="250" as="sourcePoint" />
            <mxPoint x="-53.5" y="415" as="targetPoint" />
            <Array as="points">
              <mxPoint x="-2" y="290" />
            </Array>
            <mxPoint as="offset" />
          </mxGeometry>
        </mxCell>
        <mxCell id="9emtBQFoJuCTRoUykFiL-4" value="Area&lt;br&gt;expressed?" style="rhombus;whiteSpace=wrap;html=1;fillColor=#76608a;fontColor=#ffffff;strokeColor=#432D57;" parent="1" vertex="1">
          <mxGeometry x="-52.5" y="170" width="100" height="80" as="geometry" />
        </mxCell>
        <mxCell id="9emtBQFoJuCTRoUykFiL-17" value="no" style="edgeStyle=orthogonalEdgeStyle;rounded=0;orthogonalLoop=1;jettySize=auto;html=1;" parent="1" source="9emtBQFoJuCTRoUykFiL-5" target="9emtBQFoJuCTRoUykFiL-15" edge="1">
          <mxGeometry relative="1" as="geometry" />
        </mxCell>
        <mxCell id="9emtBQFoJuCTRoUykFiL-5" value="Price range&lt;br&gt;expressed?" style="rhombus;whiteSpace=wrap;html=1;fillColor=#76608a;fontColor=#ffffff;strokeColor=#432D57;" parent="1" vertex="1">
          <mxGeometry x="-52.5" y="440" width="100" height="85" as="geometry" />
        </mxCell>
        <mxCell id="9emtBQFoJuCTRoUykFiL-23" value="no" style="edgeStyle=orthogonalEdgeStyle;rounded=0;orthogonalLoop=1;jettySize=auto;html=1;" parent="1" source="9emtBQFoJuCTRoUykFiL-6" target="9emtBQFoJuCTRoUykFiL-22" edge="1">
          <mxGeometry relative="1" as="geometry" />
        </mxCell>
        <mxCell id="9emtBQFoJuCTRoUykFiL-27" value="yes" style="edgeStyle=orthogonalEdgeStyle;rounded=0;orthogonalLoop=1;jettySize=auto;html=1;entryX=0.5;entryY=0;entryDx=0;entryDy=0;" parent="1" source="9emtBQFoJuCTRoUykFiL-6" target="9emtBQFoJuCTRoUykFiL-31" edge="1">
          <mxGeometry relative="1" as="geometry">
            <mxPoint x="200" y="710" as="targetPoint" />
          </mxGeometry>
        </mxCell>
        <mxCell id="9emtBQFoJuCTRoUykFiL-6" value="Food type&amp;nbsp;&lt;br&gt;expressed?" style="rhombus;whiteSpace=wrap;html=1;fillColor=#76608a;fontColor=#ffffff;strokeColor=#432D57;" parent="1" vertex="1">
          <mxGeometry x="-47.5" y="700" width="90" height="80" as="geometry" />
        </mxCell>
        <mxCell id="9emtBQFoJuCTRoUykFiL-12" style="edgeStyle=orthogonalEdgeStyle;rounded=0;orthogonalLoop=1;jettySize=auto;html=1;entryX=0.5;entryY=0;entryDx=0;entryDy=0;" parent="1" source="9emtBQFoJuCTRoUykFiL-9" target="9emtBQFoJuCTRoUykFiL-11" edge="1">
          <mxGeometry relative="1" as="geometry" />
        </mxCell>
        <mxCell id="9emtBQFoJuCTRoUykFiL-9" value="2. Ask area" style="rounded=0;whiteSpace=wrap;html=1;fillColor=#76608a;fontColor=#ffffff;strokeColor=#432D57;" parent="1" vertex="1">
          <mxGeometry x="270" y="190" width="80" height="40" as="geometry" />
        </mxCell>
        <mxCell id="9emtBQFoJuCTRoUykFiL-14" style="edgeStyle=orthogonalEdgeStyle;rounded=0;orthogonalLoop=1;jettySize=auto;html=1;exitX=0;exitY=0;exitDx=0;exitDy=0;entryX=1;entryY=1;entryDx=0;entryDy=0;" parent="1" source="9emtBQFoJuCTRoUykFiL-11" target="9emtBQFoJuCTRoUykFiL-4" edge="1">
          <mxGeometry relative="1" as="geometry">
            <Array as="points">
              <mxPoint x="193" y="300" />
              <mxPoint x="23" y="300" />
            </Array>
          </mxGeometry>
        </mxCell>
        <mxCell id="9emtBQFoJuCTRoUykFiL-11" value="User response" style="ellipse;whiteSpace=wrap;html=1;fillColor=#6d8764;fontColor=#ffffff;strokeColor=#3A5431;" parent="1" vertex="1">
          <mxGeometry x="180" y="280" width="90" height="50" as="geometry" />
        </mxCell>
        <mxCell id="9emtBQFoJuCTRoUykFiL-20" value="" style="edgeStyle=orthogonalEdgeStyle;rounded=0;orthogonalLoop=1;jettySize=auto;html=1;" parent="1" source="9emtBQFoJuCTRoUykFiL-15" target="9emtBQFoJuCTRoUykFiL-19" edge="1">
          <mxGeometry relative="1" as="geometry">
            <Array as="points">
              <mxPoint x="310" y="522" />
              <mxPoint x="225" y="522" />
            </Array>
          </mxGeometry>
        </mxCell>
        <mxCell id="9emtBQFoJuCTRoUykFiL-15" value="3. Ask price range" style="rounded=0;whiteSpace=wrap;html=1;fillColor=#76608a;fontColor=#ffffff;strokeColor=#432D57;" parent="1" vertex="1">
          <mxGeometry x="270" y="462.5" width="80" height="40" as="geometry" />
        </mxCell>
        <mxCell id="9emtBQFoJuCTRoUykFiL-21" style="edgeStyle=orthogonalEdgeStyle;rounded=0;orthogonalLoop=1;jettySize=auto;html=1;exitX=0;exitY=0;exitDx=0;exitDy=0;entryX=1;entryY=1;entryDx=0;entryDy=0;" parent="1" source="9emtBQFoJuCTRoUykFiL-19" target="9emtBQFoJuCTRoUykFiL-5" edge="1">
          <mxGeometry relative="1" as="geometry">
            <Array as="points">
              <mxPoint x="193" y="560" />
              <mxPoint x="22" y="560" />
            </Array>
          </mxGeometry>
        </mxCell>
        <mxCell id="9emtBQFoJuCTRoUykFiL-19" value="User response" style="ellipse;whiteSpace=wrap;html=1;fillColor=#6d8764;fontColor=#ffffff;strokeColor=#3A5431;" parent="1" vertex="1">
          <mxGeometry x="180" y="540" width="90" height="50" as="geometry" />
        </mxCell>
        <mxCell id="SgVEHP1aC8Nxf148HGIK-15" style="edgeStyle=orthogonalEdgeStyle;rounded=0;orthogonalLoop=1;jettySize=auto;html=1;exitX=0.5;exitY=1;exitDx=0;exitDy=0;entryX=0.5;entryY=0;entryDx=0;entryDy=0;" edge="1" parent="1" source="9emtBQFoJuCTRoUykFiL-22" target="9emtBQFoJuCTRoUykFiL-24">
          <mxGeometry relative="1" as="geometry" />
        </mxCell>
        <mxCell id="9emtBQFoJuCTRoUykFiL-22" value="4. Ask food type" style="rounded=0;whiteSpace=wrap;html=1;fillColor=#76608a;fontColor=#ffffff;strokeColor=#432D57;" parent="1" vertex="1">
          <mxGeometry x="270" y="720" width="80" height="40" as="geometry" />
        </mxCell>
        <mxCell id="SgVEHP1aC8Nxf148HGIK-16" style="edgeStyle=orthogonalEdgeStyle;rounded=0;orthogonalLoop=1;jettySize=auto;html=1;exitX=0;exitY=0.5;exitDx=0;exitDy=0;entryX=1;entryY=1;entryDx=0;entryDy=0;" edge="1" parent="1" source="9emtBQFoJuCTRoUykFiL-24" target="9emtBQFoJuCTRoUykFiL-6">
          <mxGeometry relative="1" as="geometry">
            <Array as="points">
              <mxPoint x="20" y="825" />
            </Array>
          </mxGeometry>
        </mxCell>
        <mxCell id="9emtBQFoJuCTRoUykFiL-24" value="User response" style="ellipse;whiteSpace=wrap;html=1;fillColor=#6d8764;fontColor=#ffffff;strokeColor=#3A5431;" parent="1" vertex="1">
          <mxGeometry x="172.5" y="800" width="97.5" height="50" as="geometry" />
        </mxCell>
        <mxCell id="9emtBQFoJuCTRoUykFiL-35" value="" style="edgeStyle=orthogonalEdgeStyle;rounded=0;orthogonalLoop=1;jettySize=auto;html=1;" parent="1" source="9emtBQFoJuCTRoUykFiL-28" target="9emtBQFoJuCTRoUykFiL-34" edge="1">
          <mxGeometry relative="1" as="geometry" />
        </mxCell>
        <mxCell id="9emtBQFoJuCTRoUykFiL-28" value="User response" style="ellipse;whiteSpace=wrap;html=1;fillColor=#6d8764;fontColor=#ffffff;strokeColor=#3A5431;" parent="1" vertex="1">
          <mxGeometry x="320" y="920" width="100" height="60" as="geometry" />
        </mxCell>
        <mxCell id="9emtBQFoJuCTRoUykFiL-32" value="yes" style="edgeStyle=orthogonalEdgeStyle;rounded=0;orthogonalLoop=1;jettySize=auto;html=1;" parent="1" source="9emtBQFoJuCTRoUykFiL-31" target="9emtBQFoJuCTRoUykFiL-1" edge="1">
          <mxGeometry relative="1" as="geometry" />
        </mxCell>
        <mxCell id="9emtBQFoJuCTRoUykFiL-33" value="no" style="edgeStyle=orthogonalEdgeStyle;rounded=0;orthogonalLoop=1;jettySize=auto;html=1;entryX=1;entryY=0.5;entryDx=0;entryDy=0;" parent="1" source="9emtBQFoJuCTRoUykFiL-31" target="9emtBQFoJuCTRoUykFiL-40" edge="1">
          <mxGeometry relative="1" as="geometry">
            <mxPoint x="50" y="750" as="targetPoint" />
          </mxGeometry>
        </mxCell>
        <mxCell id="9emtBQFoJuCTRoUykFiL-31" value="Restaurant with given preferences exists?" style="rhombus;whiteSpace=wrap;html=1;fillColor=#76608a;fontColor=#ffffff;strokeColor=#432D57;" parent="1" vertex="1">
          <mxGeometry x="-77.5" y="900" width="150" height="100" as="geometry" />
        </mxCell>
        <mxCell id="9emtBQFoJuCTRoUykFiL-36" value="no" style="edgeStyle=orthogonalEdgeStyle;rounded=0;orthogonalLoop=1;jettySize=auto;html=1;entryX=0.5;entryY=1;entryDx=0;entryDy=0;exitX=0.5;exitY=1;exitDx=0;exitDy=0;" parent="1" target="9emtBQFoJuCTRoUykFiL-1" edge="1" source="9emtBQFoJuCTRoUykFiL-34">
          <mxGeometry relative="1" as="geometry">
            <mxPoint x="200" y="960" as="targetPoint" />
            <mxPoint x="500" y="870" as="sourcePoint" />
            <Array as="points">
              <mxPoint x="510" y="1040" />
              <mxPoint x="200" y="1040" />
            </Array>
            <mxPoint as="offset" />
          </mxGeometry>
        </mxCell>
        <mxCell id="9emtBQFoJuCTRoUykFiL-39" value="yes" style="edgeStyle=orthogonalEdgeStyle;rounded=0;orthogonalLoop=1;jettySize=auto;html=1;entryX=0;entryY=0.5;entryDx=0;entryDy=0;" parent="1" source="9emtBQFoJuCTRoUykFiL-34" target="9emtBQFoJuCTRoUykFiL-46" edge="1">
          <mxGeometry relative="1" as="geometry">
            <mxPoint x="590" y="870" as="targetPoint" />
          </mxGeometry>
        </mxCell>
        <mxCell id="9emtBQFoJuCTRoUykFiL-34" value="User&amp;nbsp;&lt;br&gt;agrees?" style="rhombus;whiteSpace=wrap;html=1;fillColor=#76608a;fontColor=#ffffff;strokeColor=#432D57;" parent="1" vertex="1">
          <mxGeometry x="470" y="910" width="80" height="80" as="geometry" />
        </mxCell>
        <mxCell id="9emtBQFoJuCTRoUykFiL-42" value="" style="edgeStyle=orthogonalEdgeStyle;rounded=0;orthogonalLoop=1;jettySize=auto;html=1;" parent="1" source="9emtBQFoJuCTRoUykFiL-40" target="9emtBQFoJuCTRoUykFiL-41" edge="1">
          <mxGeometry relative="1" as="geometry" />
        </mxCell>
        <mxCell id="9emtBQFoJuCTRoUykFiL-40" value="5. Express that no restaurant is possible with current information" style="rounded=0;whiteSpace=wrap;html=1;fillColor=#76608a;fontColor=#ffffff;strokeColor=#432D57;" parent="1" vertex="1">
          <mxGeometry x="-300" y="920" width="140" height="60" as="geometry" />
        </mxCell>
        <mxCell id="9emtBQFoJuCTRoUykFiL-43" style="edgeStyle=orthogonalEdgeStyle;rounded=0;orthogonalLoop=1;jettySize=auto;html=1;exitX=0.5;exitY=0;exitDx=0;exitDy=0;entryX=0;entryY=0.5;entryDx=0;entryDy=0;" parent="1" source="9emtBQFoJuCTRoUykFiL-41" target="9emtBQFoJuCTRoUykFiL-4" edge="1">
          <mxGeometry relative="1" as="geometry">
            <mxPoint x="-20" y="500" as="targetPoint" />
          </mxGeometry>
        </mxCell>
        <mxCell id="9emtBQFoJuCTRoUykFiL-41" value="Express new / reviewed preferences" style="ellipse;whiteSpace=wrap;html=1;fillColor=#6d8764;fontColor=#ffffff;strokeColor=#3A5431;" parent="1" vertex="1">
          <mxGeometry x="-450" y="590" width="140" height="80" as="geometry" />
        </mxCell>
        <mxCell id="9emtBQFoJuCTRoUykFiL-44" value="8. Goodbye" style="rounded=0;whiteSpace=wrap;html=1;fillColor=#76608a;fontColor=#ffffff;strokeColor=#432D57;" parent="1" vertex="1">
          <mxGeometry x="630" y="490" width="120" height="60" as="geometry" />
        </mxCell>
        <mxCell id="9emtBQFoJuCTRoUykFiL-49" value="" style="edgeStyle=orthogonalEdgeStyle;rounded=0;orthogonalLoop=1;jettySize=auto;html=1;" parent="1" source="9emtBQFoJuCTRoUykFiL-46" target="9emtBQFoJuCTRoUykFiL-48" edge="1">
          <mxGeometry relative="1" as="geometry" />
        </mxCell>
        <mxCell id="9emtBQFoJuCTRoUykFiL-46" value="7. Provide restaurant details (such as phone number, address, postal code etc.)" style="rounded=0;whiteSpace=wrap;html=1;fillColor=#76608a;fontColor=#ffffff;strokeColor=#432D57;" parent="1" vertex="1">
          <mxGeometry x="630" y="905" width="120" height="90" as="geometry" />
        </mxCell>
        <mxCell id="9emtBQFoJuCTRoUykFiL-51" value="" style="edgeStyle=orthogonalEdgeStyle;rounded=0;orthogonalLoop=1;jettySize=auto;html=1;" parent="1" source="9emtBQFoJuCTRoUykFiL-48" target="9emtBQFoJuCTRoUykFiL-50" edge="1">
          <mxGeometry relative="1" as="geometry" />
        </mxCell>
        <mxCell id="9emtBQFoJuCTRoUykFiL-48" value="User response" style="ellipse;whiteSpace=wrap;html=1;fillColor=#6d8764;fontColor=#ffffff;strokeColor=#3A5431;" parent="1" vertex="1">
          <mxGeometry x="635" y="780" width="110" height="50" as="geometry" />
        </mxCell>
        <mxCell id="9emtBQFoJuCTRoUykFiL-52" value="no" style="edgeStyle=orthogonalEdgeStyle;rounded=0;orthogonalLoop=1;jettySize=auto;html=1;" parent="1" source="9emtBQFoJuCTRoUykFiL-50" target="9emtBQFoJuCTRoUykFiL-44" edge="1">
          <mxGeometry relative="1" as="geometry" />
        </mxCell>
        <mxCell id="9emtBQFoJuCTRoUykFiL-53" value="yes" style="edgeStyle=orthogonalEdgeStyle;rounded=0;orthogonalLoop=1;jettySize=auto;html=1;exitX=1;exitY=0.5;exitDx=0;exitDy=0;entryX=1;entryY=0.5;entryDx=0;entryDy=0;" parent="1" source="9emtBQFoJuCTRoUykFiL-50" target="9emtBQFoJuCTRoUykFiL-46" edge="1">
          <mxGeometry relative="1" as="geometry">
            <Array as="points">
              <mxPoint x="800" y="670" />
              <mxPoint x="800" y="950" />
            </Array>
          </mxGeometry>
        </mxCell>
        <mxCell id="9emtBQFoJuCTRoUykFiL-50" value="Request that still &lt;br&gt;needs to be &lt;br&gt;handled?" style="rhombus;whiteSpace=wrap;html=1;fillColor=#76608a;fontColor=#ffffff;strokeColor=#432D57;" parent="1" vertex="1">
          <mxGeometry x="625" y="620" width="130" height="100" as="geometry" />
        </mxCell>
        <mxCell id="SgVEHP1aC8Nxf148HGIK-4" style="edgeStyle=orthogonalEdgeStyle;rounded=0;orthogonalLoop=1;jettySize=auto;html=1;exitX=0;exitY=0.5;exitDx=0;exitDy=0;entryX=0.5;entryY=0;entryDx=0;entryDy=0;" edge="1" parent="1" source="SgVEHP1aC8Nxf148HGIK-3" target="9emtBQFoJuCTRoUykFiL-40">
          <mxGeometry relative="1" as="geometry" />
        </mxCell>
        <mxCell id="SgVEHP1aC8Nxf148HGIK-5" value="no" style="edgeLabel;html=1;align=center;verticalAlign=middle;resizable=0;points=[];" vertex="1" connectable="0" parent="SgVEHP1aC8Nxf148HGIK-4">
          <mxGeometry x="0.0682" y="2" relative="1" as="geometry">
            <mxPoint as="offset" />
          </mxGeometry>
        </mxCell>
        <mxCell id="SgVEHP1aC8Nxf148HGIK-6" style="edgeStyle=orthogonalEdgeStyle;rounded=0;orthogonalLoop=1;jettySize=auto;html=1;exitX=0.5;exitY=1;exitDx=0;exitDy=0;entryX=0.5;entryY=0;entryDx=0;entryDy=0;" edge="1" parent="1" source="SgVEHP1aC8Nxf148HGIK-3" target="9emtBQFoJuCTRoUykFiL-5">
          <mxGeometry relative="1" as="geometry" />
        </mxCell>
        <mxCell id="SgVEHP1aC8Nxf148HGIK-7" value="yes" style="edgeLabel;html=1;align=center;verticalAlign=middle;resizable=0;points=[];" vertex="1" connectable="0" parent="SgVEHP1aC8Nxf148HGIK-6">
          <mxGeometry x="-0.1556" y="-1" relative="1" as="geometry">
            <mxPoint as="offset" />
          </mxGeometry>
        </mxCell>
        <mxCell id="SgVEHP1aC8Nxf148HGIK-3" value="Restaurant with given preferences exists?" style="rhombus;whiteSpace=wrap;html=1;fillColor=#76608a;fontColor=#ffffff;strokeColor=#432D57;" vertex="1" parent="1">
          <mxGeometry x="-52.5" y="300" width="100" height="90" as="geometry" />
        </mxCell>
        <mxCell id="SgVEHP1aC8Nxf148HGIK-21" style="edgeStyle=orthogonalEdgeStyle;rounded=0;orthogonalLoop=1;jettySize=auto;html=1;exitX=0;exitY=0.5;exitDx=0;exitDy=0;entryX=0.75;entryY=0;entryDx=0;entryDy=0;" edge="1" parent="1" source="SgVEHP1aC8Nxf148HGIK-10" target="9emtBQFoJuCTRoUykFiL-40">
          <mxGeometry relative="1" as="geometry" />
        </mxCell>
        <mxCell id="SgVEHP1aC8Nxf148HGIK-22" value="no" style="edgeLabel;html=1;align=center;verticalAlign=middle;resizable=0;points=[];" vertex="1" connectable="0" parent="SgVEHP1aC8Nxf148HGIK-21">
          <mxGeometry x="0.0071" y="1" relative="1" as="geometry">
            <mxPoint as="offset" />
          </mxGeometry>
        </mxCell>
        <mxCell id="SgVEHP1aC8Nxf148HGIK-10" value="Restaurant with given preferences exists?" style="rhombus;whiteSpace=wrap;html=1;fillColor=#76608a;fontColor=#ffffff;strokeColor=#432D57;" vertex="1" parent="1">
          <mxGeometry x="-52.5" y="570" width="100" height="90" as="geometry" />
        </mxCell>
        <mxCell id="SgVEHP1aC8Nxf148HGIK-11" style="edgeStyle=orthogonalEdgeStyle;rounded=0;orthogonalLoop=1;jettySize=auto;html=1;" edge="1" parent="1" source="9emtBQFoJuCTRoUykFiL-5" target="SgVEHP1aC8Nxf148HGIK-10">
          <mxGeometry relative="1" as="geometry">
            <mxPoint x="-2.24" y="525" as="sourcePoint" />
            <mxPoint x="-2.24" y="575" as="targetPoint" />
            <Array as="points" />
          </mxGeometry>
        </mxCell>
        <mxCell id="SgVEHP1aC8Nxf148HGIK-12" value="yes" style="edgeLabel;html=1;align=center;verticalAlign=middle;resizable=0;points=[];" vertex="1" connectable="0" parent="SgVEHP1aC8Nxf148HGIK-11">
          <mxGeometry x="-0.1556" y="-1" relative="1" as="geometry">
            <mxPoint as="offset" />
          </mxGeometry>
        </mxCell>
        <mxCell id="SgVEHP1aC8Nxf148HGIK-13" style="edgeStyle=orthogonalEdgeStyle;rounded=0;orthogonalLoop=1;jettySize=auto;html=1;" edge="1" parent="1" source="SgVEHP1aC8Nxf148HGIK-10" target="9emtBQFoJuCTRoUykFiL-6">
          <mxGeometry relative="1" as="geometry">
            <mxPoint x="-1" y="670" as="sourcePoint" />
            <mxPoint x="-1" y="715" as="targetPoint" />
            <Array as="points" />
          </mxGeometry>
        </mxCell>
        <mxCell id="SgVEHP1aC8Nxf148HGIK-14" value="yes" style="edgeLabel;html=1;align=center;verticalAlign=middle;resizable=0;points=[];" vertex="1" connectable="0" parent="SgVEHP1aC8Nxf148HGIK-13">
          <mxGeometry x="-0.1556" y="-1" relative="1" as="geometry">
            <mxPoint as="offset" />
          </mxGeometry>
        </mxCell>
      </root>
    </mxGraphModel>
  </diagram>
</mxfile>
